# xmcd
#
# Track frame offsets:
#	150
#	40968
#	52650
#	73265
#	89006
#	102196
#	117412
#	133696
#	153168
#	171121
#	193490
#	208800
#	224259
#	236240
#	248400
#	260081
#	272043
#
# Disc length: 3816 seconds
#
# Revision: 1
# Processed by: cddbd v1.5.1PL0 Copyright (c) Steve Scherf et al.
# Submitted via: audiograbber 1.83.01
#
DISCID=050ee611
DTITLE=Snake Eyes - Handmade
DYEAR=1999
DGENRE=Country
TTITLE0=Western Medley
TTITLE1=Little Bitty
TTITLE2=Chattahoochee
TTITLE3=I Can Help
TTITLE4=Brother Jukebox
TTITLE5=Loosers
TTITLE6=Lovin' All Night
TTITLE7=Honky Tonk Woman
TTITLE8=God Blessed Texas
TTITLE9=My Love
TTITLE10=The King Is Gone
TTITLE11=Come To Country
TTITLE12=The Whiskey Ain't Workin'
TTITLE13=It Don't Get Better
TTITLE14=Here's A Quarter
TTITLE15=The Claw
TTITLE16=Summertime Blues
EXTD=Country Music from GERMANY
EXTT0=
EXTT1=
EXTT2=
EXTT3=
EXTT4=
EXTT5=
EXTT6=
EXTT7=
EXTT8=
EXTT9=
EXTT10=
EXTT11=
EXTT12=
EXTT13=
EXTT14=
EXTT15=
EXTT16=
PLAYORDER=
